G04*
G04 #@! TF.GenerationSoftware,Altium Limited,Altium Designer,18.1.9 (240)*
G04*
G04 Layer_Physical_Order=1*
G04 Layer_Color=255*
%FSLAX25Y25*%
%MOIN*%
G70*
G01*
G75*
%ADD13C,0.01000*%
%ADD14R,0.04000X0.05500*%
%ADD21R,0.24016X0.06299*%
%ADD22C,0.06000*%
%ADD23O,0.05150X0.10299*%
%ADD24O,0.10299X0.05150*%
%ADD25C,0.04724*%
D13*
X173315Y331000D02*
Y342961D01*
X177177Y346823D01*
Y355077D01*
X186100Y364000D01*
X173315Y319039D02*
Y331000D01*
Y319039D02*
X177177Y315177D01*
Y303923D02*
Y315177D01*
Y303923D02*
X185600Y295500D01*
X193000D02*
Y311315D01*
X248685D02*
X252000Y308000D01*
X193000Y311315D02*
X248685D01*
X223559Y364000D02*
X252000Y335559D01*
X211900Y364000D02*
X223559D01*
X193000Y350685D02*
X193500Y351185D01*
Y364000D01*
X200371D02*
X204500D01*
X196121Y368250D02*
X200371Y364000D01*
X190879Y368250D02*
X196121D01*
X190000Y367371D02*
X190879Y368250D01*
X190000Y364000D02*
Y367371D01*
X186100Y364000D02*
X190000D01*
X246641Y335559D02*
X250500D01*
D14*
X204500Y364000D02*
D03*
X211900D02*
D03*
X193500D02*
D03*
X186100D02*
D03*
X185600Y295500D02*
D03*
X193000D02*
D03*
D21*
X252000Y308000D02*
D03*
Y335559D02*
D03*
D22*
X162500Y374250D02*
D03*
X294500Y374500D02*
D03*
Y296500D02*
D03*
X162500D02*
D03*
D23*
X173315Y331000D02*
D03*
D24*
X193000Y311315D02*
D03*
Y350685D02*
D03*
D25*
X163472D02*
D03*
X173315D02*
D03*
X193000Y331000D02*
D03*
X163472Y311315D02*
D03*
X173315D02*
D03*
M02*
