G04*
G04 #@! TF.GenerationSoftware,Altium Limited,Altium Designer,18.1.9 (240)*
G04*
G04 Layer_Color=65535*
%FSLAX25Y25*%
%MOIN*%
G70*
G01*
G75*
%ADD10C,0.01339*%
%ADD11C,0.00500*%
%ADD12C,0.00600*%
%ADD13C,0.01000*%
D10*
X173984Y357772D02*
G03*
X173984Y357772I-669J0D01*
G01*
D11*
X202842Y306591D02*
Y355410D01*
X159535Y306591D02*
X202842D01*
X159535Y355410D02*
X202842D01*
X159535Y348716D02*
Y355410D01*
Y306591D02*
Y313283D01*
X156386Y348716D02*
X159535D01*
X156386Y313283D02*
X159535D01*
D12*
X207800Y361200D02*
X208600D01*
X207800Y366800D02*
X208600D01*
X189400D02*
X190200D01*
X189400Y361200D02*
X190200D01*
X188900Y292700D02*
X189700D01*
X188900Y298300D02*
X189700D01*
D13*
X227499Y377998D02*
X226499Y378998D01*
X224500D01*
X223500Y377998D01*
Y376999D01*
X224500Y375999D01*
X226499D01*
X227499Y374999D01*
Y374000D01*
X226499Y373000D01*
X224500D01*
X223500Y374000D01*
X229498Y373000D02*
X231497D01*
X230498D01*
Y378998D01*
X229498Y377998D01*
X244499Y378998D02*
X242499D01*
X243499D01*
Y374000D01*
X242499Y373000D01*
X241500D01*
X240500Y374000D01*
X249497Y373000D02*
X247498D01*
X246498Y374000D01*
Y375999D01*
X247498Y376999D01*
X249497D01*
X250497Y375999D01*
Y374999D01*
X246498D01*
X252496Y373000D02*
Y376999D01*
X255495D01*
X256495Y375999D01*
Y373000D01*
X258494D02*
Y376999D01*
X261493D01*
X262493Y375999D01*
Y373000D01*
X265492Y376999D02*
X267491D01*
X268491Y375999D01*
Y373000D01*
X265492D01*
X264492Y374000D01*
X265492Y374999D01*
X268491D01*
X280487Y377998D02*
X279487Y378998D01*
X277488D01*
X276488Y377998D01*
Y376999D01*
X277488Y375999D01*
X279487D01*
X280487Y374999D01*
Y374000D01*
X279487Y373000D01*
X277488D01*
X276488Y374000D01*
X157500Y364498D02*
Y359500D01*
X158500Y358500D01*
X160499D01*
X161499Y359500D01*
Y364498D01*
X163498Y358500D02*
X165497D01*
X164498D01*
Y364498D01*
X163498Y363498D01*
X203050Y370150D02*
Y376148D01*
X206049D01*
X207049Y375148D01*
Y373149D01*
X206049Y372149D01*
X203050D01*
X205049D02*
X207049Y370150D01*
X209048Y375148D02*
X210048Y376148D01*
X212047D01*
X213047Y375148D01*
Y374149D01*
X212047Y373149D01*
X211047D01*
X212047D01*
X213047Y372149D01*
Y371150D01*
X212047Y370150D01*
X210048D01*
X209048Y371150D01*
X184200Y301600D02*
Y307598D01*
X187199D01*
X188199Y306598D01*
Y304599D01*
X187199Y303599D01*
X184200D01*
X186199D02*
X188199Y301600D01*
X194197D02*
X190198D01*
X194197Y305599D01*
Y306598D01*
X193197Y307598D01*
X191198D01*
X190198Y306598D01*
X184700Y370100D02*
Y376098D01*
X187699D01*
X188699Y375098D01*
Y373099D01*
X187699Y372099D01*
X184700D01*
X186699D02*
X188699Y370100D01*
X190698D02*
X192697D01*
X191698D01*
Y376098D01*
X190698Y375098D01*
M02*
